PathFileType  4	(X/Y/Z) C:\Users\antoi\Documents\MyRepositories\mobilecap\ResultsAnalysis
DataRate	CameraRate	NumFrames	NumMarkers	Units	OrigDataRate	OrigDataStartFrame	OrigNumFrames
100.0	100.0	7	51	mm	100.0	171	341
Frame#	Time	r_knee			r_shank_antsup			r_ankle			r_calc			r_5meta			r_toe			L_knee			L_shank_antsup			L_ankle			L_calc			L_5meta			L_toe			r_sh2			r_sh3			r_sh4			L_sh2			L_sh3			r_thigh1			r_thigh2			r_thigh3			r_thigh4			r_thigh5			L_thigh1			L_thigh2			L_thigh3			L_thigh4			r.ASIS			r.PSIS			L.ASIS			L.PSIS			C7			R_Shoulder			L_Shoulder			R_Sternum			L_Sternum			R_humerus			R_elbow_med			R_elbow_lat			R_forearm			R_wrist_radius			R_wrist_ulna			L_humerus			L_elbow_med			L_elbow_lat			L_forearm			L_wrist_radius			L_wrist_ulna			R_HJC			L_HJC			R_HJC_reg			L_HJC_reg			
		X1	Y1	Z1	X2	Y2	Z2	X3	Y3	Z3	X4	Y4	Z4	X5	Y5	Z5	X6	Y6	Z6	X7	Y7	Z7	X8	Y8	Z8	X9	Y9	Z9	X10	Y10	Z10	X11	Y11	Z11	X12	Y12	Z12	X13	Y13	Z13	X14	Y14	Z14	X15	Y15	Z15	X16	Y16	Z16	X17	Y17	Z17	X18	Y18	Z18	X19	Y19	Z19	X20	Y20	Z20	X21	Y21	Z21	X22	Y22	Z22	X23	Y23	Z23	X24	Y24	Z24	X25	Y25	Z25	X26	Y26	Z26	X27	Y27	Z27	X28	Y28	Z28	X29	Y29	Z29	X30	Y30	Z30	X31	Y31	Z31	X32	Y32	Z32	X33	Y33	Z33	X34	Y34	Z34	X35	Y35	Z35	X36	Y36	Z36	X37	Y37	Z37	X38	Y38	Z38	X39	Y39	Z39	X40	Y40	Z40	X41	Y41	Z41	X42	Y42	Z42	X43	Y43	Z43	X44	Y44	Z44	X45	Y45	Z45	X46	Y46	Z46	X47	Y47	Z47	X48	Y48	Z48	X49	Y49	Z49	X50	Y50	Z50	X51	Y51	Z51	

171	1.70000000	-944.25535	698.57094	-435.98763	-975.14707	672.09153	-407.42489	-1215.96428	418.06326	-457.49883	-1287.96976	380.69277	-509.11796	-1117.71781	345.35523	-410.55044	-1069.70803	359.83394	-463.37343	-956.70442	699.68911	-731.72611	-968.28749	613.70497	-748.45280	-1219.09005	416.46623	-702.79849	-1291.43422	381.91066	-652.04615	-1119.57368	348.67761	-735.36055	-1070.98500	361.04697	-682.32349	-1050.94403	584.12150	-403.52383	-921.50346	632.54786	-445.83783	-998.38631	545.96449	-461.99130	-1025.71035	679.87599	-751.51480	-1109.90794	590.97555	-746.79174	-977.35162	994.17908	-475.54837	-921.19701	898.04770	-466.13551	-931.74684	869.54370	-405.27052	-1030.70728	969.99888	-379.06127	-982.65773	866.24969	-380.67706	-1047.72883	1002.03056	-746.13577	-997.19723	869.40902	-760.58749	-1152.95456	959.84741	-728.97373	-1097.36417	834.44742	-722.02906	-999.24130	1094.95263	-442.60944	-1157.25136	1209.56817	-516.08779	-1016.25530	1074.06641	-684.64912	-1161.84007	1206.47110	-612.92701	-836.92212	1552.39205	-588.77107	-762.59719	1493.57912	-447.19921	-788.40605	1475.62007	-729.90373	-781.93310	1417.95385	-566.41247	-784.84531	1413.36498	-596.69991	-646.10983	1314.03905	-378.97678	-635.56800	1193.25105	-410.94190	-601.22684	1228.00590	-357.73264	-482.08812	1290.49607	-408.58370	-417.15010	1346.42897	-460.24803	-393.03138	1308.27166	-453.24429	-709.27513	1285.52642	-813.44541	-686.05314	1161.68506	-768.69788	-665.14109	1181.03379	-827.82156	-532.72797	1231.96535	-781.05582	-454.95363	1282.39794	-729.57271	-439.11526	1240.17500	-727.43935	-1105.02369	1055.22903	-471.17016	-1124.64034	1056.01399	-660.82811	-1099.49938	1054.82159	-470.52318	-1107.10383	1049.68946	-630.99348	
172	1.71000000	-943.92013	700.87259	-435.06041	-975.46977	674.20289	-406.41292	-1215.42089	418.46143	-456.61908	-1287.56905	382.83965	-508.73418	-1117.64065	345.27076	-410.40931	-1069.60406	359.71898	-463.14491	-957.34831	701.21923	-732.18280	-969.10000	615.02886	-748.97474	-1219.12524	416.65170	-703.10039	-1291.36577	382.27606	-652.21903	-1119.58959	348.60651	-735.42425	-1070.99458	361.07342	-682.44993	-1051.08971	586.40795	-402.43040	-921.54666	634.81489	-444.58428	-998.32527	548.10143	-460.92272	-1026.86677	680.96776	-751.72335	-1110.74229	591.69439	-746.94081	-966.55289	998.06974	-475.58603	-914.10934	899.87327	-465.93470	-925.68677	872.00006	-405.01370	-1021.11615	976.01766	-379.41708	-976.78555	870.63608	-380.52162	-1036.91437	1007.32121	-746.81923	-991.35296	872.84434	-761.28034	-1143.47560	969.08641	-729.30469	-1092.75820	841.75940	-723.06436	-986.85642	1104.04723	-442.62025	-1145.54174	1217.73239	-516.80607	-1003.67800	1083.29433	-684.93094	-1149.85400	1214.73234	-613.65845	-832.17279	1566.34390	-588.57445	-758.49514	1512.49357	-448.73146	-782.73271	1494.55550	-727.96928	-773.45065	1433.60300	-566.11545	-776.41813	1428.64613	-596.70388	-632.41967	1341.98528	-379.33696	-614.71052	1221.61543	-410.06031	-582.20263	1259.23715	-357.88786	-472.55770	1335.12286	-410.65396	-415.78676	1398.79008	-463.04211	-387.72676	1364.22754	-456.45408	-693.45301	1310.98241	-813.20104	-665.35925	1187.62707	-769.42960	-643.13388	1209.33251	-828.27762	-519.55927	1274.66662	-778.24694	-450.11054	1333.73566	-724.25484	-429.42903	1293.82353	-722.42767	-1092.52917	1063.79243	-471.65017	-1111.77197	1064.47442	-661.34600	-1087.08289	1063.17153	-470.86605	-1094.23787	1058.19417	-631.52318	
173	1.72000000	-944.04101	704.17579	-433.72813	-976.23558	677.77407	-404.98391	-1214.79945	419.09963	-455.39134	-1286.98576	385.54850	-507.72985	-1117.44843	345.20685	-410.22341	-1069.43698	359.61987	-462.75800	-958.28020	703.79818	-732.53555	-970.18472	617.54075	-749.58247	-1218.95041	417.30434	-703.75414	-1291.09875	383.36086	-652.56985	-1119.50827	348.52173	-735.55133	-1070.88642	361.07884	-682.59692	-1051.60277	589.46471	-401.18515	-921.89382	638.19051	-442.98077	-998.53650	551.19877	-459.35421	-1028.40274	683.03045	-751.42717	-1111.68533	593.28092	-747.06028	-954.93626	1002.53112	-475.90263	-906.56652	902.41367	-465.55173	-919.32874	875.20939	-404.74311	-1010.78551	983.17048	-379.87057	-970.55109	875.90712	-380.32149	-1024.99064	1013.84162	-747.62286	-984.87136	877.42960	-761.94622	-1132.87225	979.79740	-729.87356	-1087.71382	850.41442	-724.30417	-973.44654	1114.29958	-443.04128	-1132.76824	1226.97580	-517.69394	-989.79924	1093.91159	-685.07473	-1136.76733	1223.99802	-614.48844	-827.03847	1581.82410	-588.07949	-754.75936	1532.73803	-449.63928	-777.48128	1514.73936	-725.93019	-764.48595	1451.01430	-566.05508	-767.56675	1445.77481	-596.58302	-621.33498	1370.45779	-378.98334	-596.86275	1251.25515	-408.56879	-566.52236	1290.84142	-357.51750	-466.83464	1377.98239	-411.92216	-418.60813	1447.46862	-465.30917	-387.13872	1416.76036	-458.37400	-680.11645	1337.14523	-812.90310	-647.91823	1215.25813	-770.85945	-624.98968	1238.45050	-829.13418	-510.15478	1315.59778	-776.12708	-449.02466	1380.98205	-719.80399	-424.16831	1343.87987	-718.69658	-1078.86035	1073.42701	-472.34326	-1097.60560	1074.11584	-662.09039	-1073.41200	1072.97317	-471.55654	-1080.04011	1068.03888	-632.01463	
174	1.73000000	-944.26953	708.70803	-432.08350	-977.15374	682.67641	-403.23078	-1213.82497	421.14831	-453.93307	-1285.98369	389.36433	-506.31721	-1117.21815	345.08521	-410.10090	-1069.14284	359.59365	-462.20680	-958.99920	707.78170	-732.91698	-971.41020	621.52025	-750.37286	-1218.45083	418.63078	-704.72371	-1290.62993	385.45772	-653.23712	-1119.31999	348.45394	-735.80063	-1070.72343	361.03491	-682.78683	-1052.15972	593.48732	-400.02327	-922.36304	642.88579	-441.06318	-998.69377	555.48689	-457.22150	-1030.12757	686.47166	-751.24160	-1112.70715	595.93388	-747.19425	-942.27879	1007.68096	-476.14342	-898.57512	905.65644	-465.16343	-912.49616	879.39336	-404.33530	-999.48656	991.29236	-380.35527	-963.73183	882.29199	-379.92252	-1011.68439	1021.35718	-747.89186	-977.53967	883.32133	-762.40434	-1120.84722	991.86951	-730.71701	-1082.09804	860.04462	-723.87255	-958.94873	1125.77223	-443.74236	-1118.87852	1237.05136	-518.40326	-974.45835	1105.91259	-684.99646	-1122.66234	1234.18101	-615.33015	-821.67772	1598.65711	-587.33856	-751.72088	1554.17932	-450.18277	-772.73166	1535.95296	-723.86060	-755.64591	1469.48006	-565.80446	-758.69042	1464.29683	-596.41745	-612.58360	1398.89862	-378.14745	-582.63183	1280.83709	-406.95970	-554.30242	1322.10862	-356.45914	-464.31187	1418.25550	-412.27313	-424.33037	1491.95157	-466.66326	-389.85640	1464.97115	-459.05871	-669.33630	1363.24805	-812.46704	-634.23503	1244.13542	-772.80342	-610.67903	1267.20519	-830.32946	-503.97304	1354.16051	-774.76138	-450.39943	1423.80793	-716.14583	-422.14967	1389.66689	-716.04410	-1063.84499	1084.01048	-473.11121	-1081.98835	1084.85231	-662.91711	-1058.21368	1083.95148	-472.40232	-1064.45370	1079.21763	-632.30416	
175	1.74000000	-944.14159	714.78747	-430.15924	-977.81817	688.94615	-401.12544	-1212.30466	425.35054	-451.94920	-1284.34074	394.92802	-504.58533	-1116.88494	344.97361	-409.94055	-1068.58677	359.58068	-461.54997	-959.30524	713.24594	-733.38981	-972.31378	627.29007	-751.56051	-1217.45555	420.94595	-706.18055	-1289.79150	389.03332	-654.48584	-1119.02948	348.40971	-736.13480	-1070.53817	360.89718	-683.03160	-1052.28822	599.16803	-398.47868	-922.66375	649.23087	-438.80918	-998.37100	561.35599	-454.69506	-1031.70378	691.55615	-751.41257	-1113.39729	600.07449	-747.75249	-928.49921	1013.69919	-476.50899	-890.09025	909.67534	-465.20444	-904.91901	884.81155	-403.78439	-986.94880	1000.53987	-380.91045	-956.01587	890.01124	-379.42514	-996.78765	1029.84027	-747.76334	-969.06238	890.51925	-762.71538	-1107.17022	1005.18983	-732.23274	-1075.31768	870.77328	-722.05380	-943.32403	1138.69954	-444.32134	-1104.04969	1247.76365	-518.84428	-957.44998	1119.21756	-683.16128	-1107.59853	1245.20994	-616.29977	-816.23305	1616.62773	-586.49731	-749.32586	1576.23888	-450.75553	-768.35913	1557.86428	-722.02304	-746.87240	1488.86289	-565.00571	-749.91392	1483.84905	-595.91109	-605.75606	1426.62018	-376.98348	-572.03858	1308.90555	-405.05729	-545.36978	1352.13499	-354.67170	-464.31323	1455.11983	-411.71390	-431.76358	1531.60788	-467.00257	-394.71599	1508.05037	-459.06082	-660.66188	1388.63373	-811.82961	-623.28214	1271.76758	-774.41155	-599.42860	1294.98637	-832.25295	-500.32223	1389.46665	-773.78529	-453.38868	1461.94861	-713.47556	-422.29160	1430.75791	-714.42914	-1047.54647	1095.71432	-473.29182	-1064.56739	1096.37792	-663.19745	-1041.21713	1096.05534	-472.96730	-1046.98483	1091.90272	-631.23997	
176	1.75000000	-943.10478	722.78377	-428.11188	-977.53567	697.23973	-398.71867	-1209.85996	431.39525	-449.27830	-1281.76110	402.91840	-502.34564	-1116.07583	345.13156	-409.46692	-1067.68462	359.34351	-460.94953	-958.91118	720.41627	-733.75769	-972.33819	634.94465	-752.64512	-1215.65373	424.59751	-708.26281	-1288.24979	394.73302	-656.28589	-1118.54116	348.35491	-736.41846	-1070.30585	360.65509	-683.51634	-1051.37974	607.13442	-396.11396	-922.10202	657.60324	-436.28401	-997.06250	569.18465	-451.97349	-1032.52638	698.54208	-751.80885	-1113.15181	606.16083	-748.89816	-913.63048	1020.88397	-477.39279	-880.70033	915.04801	-465.65512	-896.16866	891.90457	-403.28355	-972.96437	1011.22136	-381.74726	-946.95892	899.38676	-379.05020	-980.41614	1039.25450	-747.39815	-959.14769	898.87771	-762.81837	-1091.91103	1019.43764	-734.31300	-1066.70018	883.02550	-721.31080	-926.61847	1153.33604	-444.50095	-1088.62698	1259.15170	-519.42735	-939.09519	1133.89431	-680.01442	-1091.83638	1256.90494	-617.45552	-810.73837	1635.54869	-585.64624	-747.05618	1598.33299	-451.38134	-764.14625	1579.96946	-720.49740	-738.52450	1509.20070	-563.96977	-741.83241	1504.03607	-595.37282	-600.63482	1452.75476	-375.56710	-564.48248	1334.70890	-402.86418	-539.24146	1379.71818	-352.44457	-466.12710	1487.91059	-410.45967	-440.13907	1566.17265	-466.42777	-401.16928	1545.68253	-458.56567	-653.63168	1412.80877	-811.24076	-613.29192	1295.34357	-774.98957	-590.89404	1321.10770	-834.86208	-498.48227	1420.77922	-773.10357	-457.21244	1495.24084	-711.94593	-423.75012	1466.77027	-713.70333	-1030.04698	1108.66882	-472.93621	-1045.49929	1108.61236	-662.97601	-1022.73311	1109.37646	-473.06967	-1027.84417	1105.79900	-629.13087	
177	1.76000000	-940.33340	733.04900	-426.24731	-975.15678	707.97961	-396.37439	-1205.60426	438.62630	-446.22299	-1277.47884	414.07140	-499.35443	-1114.55265	345.78023	-408.67590	-1066.43020	358.78107	-460.53090	-957.54356	729.75730	-733.84748	-970.90726	644.39586	-752.89939	-1212.42521	430.00195	-710.76664	-1285.65492	403.26268	-658.31232	-1117.53625	348.44355	-736.70546	-1069.69025	360.38059	-684.31794	-1048.50603	617.47084	-393.30050	-919.59912	668.17868	-433.80917	-993.98993	579.21261	-449.00935	-1031.76232	707.64066	-752.28188	-1111.42981	614.45410	-750.25183	-897.88258	1029.73360	-478.75038	-869.84318	922.62200	-465.98487	-885.77608	901.08413	-402.98395	-957.65193	1023.46524	-382.88018	-936.18219	910.69095	-378.89872	-963.07404	1049.50700	-746.58309	-947.62665	908.43652	-762.54199	-1075.40922	1034.20698	-736.48637	-1056.20409	896.66834	-722.38523	-909.13115	1169.47930	-444.74690	-1072.93355	1271.33029	-520.49112	-920.33778	1149.93201	-678.31186	-1075.77858	1269.10774	-618.77114	-805.16211	1654.99079	-584.94840	-744.52538	1620.06485	-451.70664	-759.85732	1601.76074	-719.25281	-731.15877	1530.13358	-562.92549	-734.45037	1524.82267	-594.33931	-597.01706	1476.59820	-373.75326	-559.44401	1358.04536	-400.88717	-535.26753	1403.87685	-350.14859	-468.95909	1516.16422	-408.74147	-448.80433	1595.75152	-464.94186	-408.56232	1577.89885	-457.35525	-648.00750	1435.39705	-811.10757	-604.62110	1315.22971	-775.01034	-585.01766	1344.54792	-837.00130	-497.74408	1447.99654	-773.17645	-461.05032	1523.61179	-711.06709	-425.86828	1497.39897	-713.39339	-1011.52783	1122.60744	-473.08203	-1025.76512	1121.79680	-663.22103	-1003.69846	1123.73198	-473.35011	-1008.17295	1120.23525	-628.11446	
